<?xml version="1.0" encoding="UTF-8" standalone="no"?>
<!-- Created with Inkscape (http://www.inkscape.org/) -->

<svg
   xmlns:dc="http://purl.org/dc/elements/1.1/"
   xmlns:cc="http://creativecommons.org/ns#"
   xmlns:rdf="http://www.w3.org/1999/02/22-rdf-syntax-ns#"
   xmlns:svg="http://www.w3.org/2000/svg"
   xmlns="http://www.w3.org/2000/svg"
   xmlns:sodipodi="http://sodipodi.sourceforge.net/DTD/sodipodi-0.dtd"
   xmlns:inkscape="http://www.inkscape.org/namespaces/inkscape"
   version="1.1"
   id="svg834"
   xml:space="preserve"
   width="1114.6667"
   height="362.66666"
   viewBox="0 0 1114.6667 362.66666"
   sodipodi:docname="google-logo.svg"
   inkscape:version="0.92.3 (2405546, 2018-03-11)"><metadata
     id="metadata840"><rdf:RDF><cc:Work
         rdf:about=""><dc:format>image/svg+xml</dc:format><dc:type
           rdf:resource="http://purl.org/dc/dcmitype/StillImage" /><dc:title></dc:title></cc:Work></rdf:RDF></metadata><defs
     id="defs838"><clipPath
       clipPathUnits="userSpaceOnUse"
       id="clipPath850"><path
         d="M 0,272 H 836 V 0 H 0 Z"
         id="path848"
         inkscape:connector-curvature="0" /></clipPath></defs><sodipodi:namedview
     pagecolor="#ffffff"
     bordercolor="#666666"
     borderopacity="1"
     objecttolerance="10"
     gridtolerance="10"
     guidetolerance="10"
     inkscape:pageopacity="0"
     inkscape:pageshadow="2"
     inkscape:window-width="1920"
     inkscape:window-height="1035"
     id="namedview836"
     showgrid="false"
     inkscape:zoom="0.84330137"
     inkscape:cx="557.33337"
     inkscape:cy="181.33333"
     inkscape:window-x="0"
     inkscape:window-y="23"
     inkscape:window-maximized="0"
     inkscape:current-layer="g842" /><g
     id="g842"
     inkscape:groupmode="layer"
     inkscape:label="logo_color_836x272px"
     transform="matrix(1.3333333,0,0,-1.3333333,0,362.66667)"><g
       clip-path="url(#clipPath850)"
       id="g846"><g
         transform="translate(108.0003,147.326)"
         id="g852"><path
           inkscape:connector-curvature="0"
           id="path854"
           style="fill:#4285f4;fill-opacity:1;fill-rule:nonzero;stroke:none"
           d="m 0,0 v 28.674 h 96 c 0.98,-5.054 1.553,-11.067 1.553,-17.58 0,-21.504 -5.887,-48.129 -24.832,-67.074 C 54.287,-75.182 30.734,-85.422 -0.5,-85.422 c -57.857,0 -106.5,47.106 -106.5,104.965 0,57.857 48.643,104.965 106.5,104.965 32.002,0 54.787,-12.545 71.939,-28.93 L 51.215,75.354 c -12.289,11.519 -28.93,20.48 -51.715,20.48 -42.242,0 -75.268,-34.049 -75.268,-76.291 0,-42.242 33.026,-76.293 75.268,-76.293 27.395,0 43.01,11.01 52.994,20.994 8.135,8.134 13.494,19.802 15.573,35.756 z" /></g><g
         transform="translate(322.1458,129.4901)"
         id="g856"><path
           inkscape:connector-curvature="0"
           id="path858"
           style="fill:#ea4335;fill-opacity:1;fill-rule:nonzero;stroke:none"
           d="m 0,0 c 0,24.322 -17.664,40.963 -38.145,40.963 -20.482,0 -38.146,-16.641 -38.146,-40.963 0,-24.064 17.664,-40.961 38.146,-40.961 C -17.664,-40.961 0,-24.064 0,0 m 29.697,0 c 0,-38.914 -30.465,-67.586 -67.842,-67.586 -37.378,0 -67.843,28.672 -67.843,67.586 0,39.17 30.465,67.588 67.843,67.588 C -0.768,67.588 29.697,39.17 29.697,0" /></g><g
         transform="translate(470.1458,129.4901)"
         id="g860"><path
           inkscape:connector-curvature="0"
           id="path862"
           style="fill:#fbbc05;fill-opacity:1;fill-rule:nonzero;stroke:none"
           d="m 0,0 c 0,24.322 -17.664,40.963 -38.145,40.963 -20.482,0 -38.146,-16.641 -38.146,-40.963 0,-24.064 17.664,-40.961 38.146,-40.961 C -17.664,-40.961 0,-24.064 0,0 m 29.697,0 c 0,-38.914 -30.465,-67.586 -67.842,-67.586 -37.378,0 -67.843,28.672 -67.843,67.586 0,39.17 30.465,67.588 67.843,67.588 C -0.768,67.588 29.697,39.17 29.697,0" /></g><g
         transform="translate(615.5872,129.2342)"
         id="g864"><path
           inkscape:connector-curvature="0"
           id="path866"
           style="fill:#4285f4;fill-opacity:1;fill-rule:nonzero;stroke:none"
           d="M 0,0 C 0,23.811 -15.873,41.219 -36.098,41.219 -56.58,41.219 -73.732,23.811 -73.732,0 c 0,-23.553 17.152,-40.705 37.634,-40.705 C -15.873,-40.705 0,-23.553 0,0 m 26.113,63.748 v -121.35 c 0,-49.923 -29.441,-70.404 -64.259,-70.404 -32.77,0 -52.483,22.018 -59.907,39.938 l 25.858,10.754 c 4.607,-11.01 15.871,-24.067 34.049,-24.067 22.273,0 36.097,13.826 36.097,39.682 v 9.728 h -1.023 c -6.657,-8.191 -19.457,-15.359 -35.586,-15.359 -33.795,0 -64.772,29.441 -64.772,67.33 0,38.146 30.977,67.844 64.772,67.844 16.129,0 28.929,-7.168 35.586,-15.106 h 1.023 v 11.01 z" /></g><path
         inkscape:connector-curvature="0"
         id="path868"
         style="fill:#34a853;fill-opacity:1;fill-rule:nonzero;stroke:none"
         d="M 692,66 H 662.303 V 264 H 692 Z" /><g
         transform="translate(735.764,131.5389)"
         id="g870"><path
           inkscape:connector-curvature="0"
           id="path872"
           style="fill:#ea4335;fill-opacity:1;fill-rule:nonzero;stroke:none"
           d="M 0,0 60.418,25.09 C 57.09,33.537 47.105,39.426 35.33,39.426 20.225,39.426 -0.768,26.113 0,0 m 70.916,-24.32 23.041,-15.362 c -7.426,-11.007 -25.346,-29.953 -56.324,-29.953 -38.401,0 -67.074,29.697 -67.074,67.586 0,40.195 28.929,67.588 63.746,67.588 35.074,0 52.226,-27.906 57.859,-43.01 L 95.236,14.85 4.863,-22.529 c 6.914,-13.569 17.666,-20.481 32.77,-20.481 15.105,0 25.601,7.424 33.283,18.69" /></g></g></g></svg>