<?xml version="1.0" encoding="UTF-8" standalone="no"?>
<!-- Generator: Adobe Illustrator 16.0.0, SVG Export Plug-In . SVG Version: 6.00 Build 0)  -->

<svg
   xmlns:dc="http://purl.org/dc/elements/1.1/"
   xmlns:cc="http://creativecommons.org/ns#"
   xmlns:rdf="http://www.w3.org/1999/02/22-rdf-syntax-ns#"
   xmlns:svg="http://www.w3.org/2000/svg"
   xmlns="http://www.w3.org/2000/svg"
   xmlns:xlink="http://www.w3.org/1999/xlink"
   xmlns:sodipodi="http://sodipodi.sourceforge.net/DTD/sodipodi-0.dtd"
   xmlns:inkscape="http://www.inkscape.org/namespaces/inkscape"
   version="1.1"
   id="Layer_1"
   x="0px"
   y="0px"
   width="552.46301"
   height="109.315"
   viewBox="0 0 552.46299 109.31501"
   enable-background="new 0 0 652.4 201.9"
   xml:space="preserve"
   sodipodi:docname="prowler-primary-logo-lbg.svg"
   inkscape:version="0.92.3 (2405546, 2018-03-11)"><metadata
   id="metadata1116"><rdf:RDF><cc:Work
       rdf:about=""><dc:format>image/svg+xml</dc:format><dc:type
         rdf:resource="http://purl.org/dc/dcmitype/StillImage" /><dc:title></dc:title></cc:Work></rdf:RDF></metadata><defs
   id="defs1114" /><sodipodi:namedview
   pagecolor="#ffffff"
   bordercolor="#666666"
   borderopacity="1"
   objecttolerance="10"
   gridtolerance="10"
   guidetolerance="10"
   inkscape:pageopacity="0"
   inkscape:pageshadow="2"
   inkscape:window-width="1920"
   inkscape:window-height="1035"
   id="namedview1112"
   showgrid="false"
   fit-margin-top="0"
   fit-margin-left="0"
   fit-margin-right="0"
   fit-margin-bottom="0"
   inkscape:zoom="0.7204169"
   inkscape:cx="281.73501"
   inkscape:cy="55.333003"
   inkscape:window-x="0"
   inkscape:window-y="23"
   inkscape:window-maximized="0"
   inkscape:current-layer="Layer_1" />
<g
   id="g1109"
   transform="translate(-44.465,-46.968)">
	<g
   id="g1043">
		<g
   id="g997">
			<path
   d="m 148.699,99.088 c 0,28.783 -23.33,52.116 -52.113,52.116 -28.79,0 -52.121,-23.333 -52.121,-52.116 0,-28.785 23.331,-52.12 52.121,-52.12 28.783,0 52.113,23.335 52.113,52.12 z"
   id="path995"
   inkscape:connector-curvature="0"
   style="fill:#5ac9e9" />
		</g>
		<g
   id="g1005">
			<defs
   id="defs1000">
				<path
   id="SVGID_1_"
   d="m 148.699,99.088 c 0,28.783 -23.33,52.116 -52.113,52.116 -28.79,0 -52.121,-23.333 -52.121,-52.116 0,-28.785 23.331,-52.12 52.121,-52.12 28.783,0 52.113,23.335 52.113,52.12 z"
   inkscape:connector-curvature="0" />
			</defs>
			<clipPath
   id="SVGID_2_">
				<use
   xlink:href="#SVGID_1_"
   overflow="visible"
   id="use1002"
   style="overflow:visible"
   x="0"
   y="0"
   width="100%"
   height="100%" />
			</clipPath>
		</g>
		<g
   id="g1033">
			<defs
   id="defs1008">
				<path
   id="SVGID_3_"
   d="m 148.699,99.088 c 0,28.783 -23.33,52.116 -52.113,52.116 -28.79,0 -52.121,-23.333 -52.121,-52.116 0,-28.785 23.331,-52.12 52.121,-52.12 28.783,0 52.113,23.335 52.113,52.12 z"
   inkscape:connector-curvature="0" />
			</defs>
			<clipPath
   id="SVGID_4_">
				<use
   xlink:href="#SVGID_3_"
   overflow="visible"
   id="use1010"
   style="overflow:visible"
   x="0"
   y="0"
   width="100%"
   height="100%" />
			</clipPath>
			<g
   clip-path="url(#SVGID_4_)"
   id="g1031">
				<g
   id="g1019">
					<path
   d="M 70.656,134.77 C 68.02,147.007 55.965,154.791 43.732,152.157 31.49,149.524 23.711,137.467 26.345,125.232 28.978,112.991 41.031,105.21 53.269,107.84 c 12.238,2.637 20.026,14.692 17.387,26.93 z"
   id="path1013"
   inkscape:connector-curvature="0"
   style="fill:#ffffff" />
					<path
   d="m 59.725,133.414 c 1.254,-5.832 -2.451,-11.578 -8.287,-12.834 -5.839,-1.252 -11.582,2.459 -12.84,8.286 -1.256,5.841 2.449,11.587 8.291,12.843 5.836,1.255 11.58,-2.457 12.836,-8.295"
   id="path1015"
   inkscape:connector-curvature="0"
   style="fill:#6658a4" />
					<path
   d="m 32.09,127.469 c 2.021,-9.41 11.334,-15.419 20.746,-13.391 9.416,2.024 15.425,11.33 13.397,20.737 -2.026,9.417 -11.336,15.423 -20.743,13.397 -9.41,-2.029 -15.425,-11.329 -13.4,-20.743 z m 23.017,40.433 -0.799,-1.475 6.018,-11.619 c 7.117,-3.369 12.653,-9.867 14.439,-18.152 3.043,-14.137 -5.953,-28.072 -20.092,-31.115 -14.143,-3.045 -28.074,5.953 -31.117,20.09 -1.738,8.066 0.455,16.059 5.277,22.01 l -1.045,13.075 -1.33,1.018 c 0,0 -9.405,1.14 -9.904,3.45 -0.498,2.311 4.917,4.172 9.71,5.202 4.801,1.032 8.107,-0.992 8.107,-0.992 l 6.058,-13.585 c 1.043,0.37 2.107,0.695 3.221,0.937 0.388,0.085 0.77,0.124 1.156,0.19 l -0.065,14.689 c 0,0 2.173,3.207 6.972,4.244 4.797,1.031 10.496,1.562 10.996,-0.75 0.498,-2.307 -7.602,-7.217 -7.602,-7.217"
   id="path1017"
   inkscape:connector-curvature="0"
   style="fill:#2b2976" />
				</g>
				<g
   id="g1029">
					<path
   d="M 87.303,117.105 34.06,91.811 C 29.727,89.753 27.865,84.53 29.92,80.196 L 44.708,49.075 c 2.059,-4.334 7.283,-6.194 11.616,-4.137 l 53.248,25.29 c 4.328,2.058 6.188,7.288 4.129,11.619 L 98.918,112.97 c -2.053,4.332 -7.283,6.192 -11.615,4.135"
   id="path1021"
   inkscape:connector-curvature="0"
   style="fill:#2b2976" />
					<path
   d="M 87.102,107.337 41.754,85.799 C 39.586,84.768 38.659,82.152 39.691,79.985 L 50.713,56.771 c 1.033,-2.169 3.645,-3.097 5.814,-2.073 l 45.341,21.542 c 2.169,1.033 3.101,3.643 2.072,5.812 l -11.02,23.216 c -1.035,2.169 -3.656,3.099 -5.818,2.069"
   id="path1023"
   inkscape:connector-curvature="0"
   style="fill:#ffffff" />
					<path
   d="m 62.35,69.422 c 2.793,1.332 3.879,4.446 2.574,7.198 l -0.337,0.709 c -1.306,2.749 -4.411,3.875 -7.202,2.542 -2.861,-1.359 -3.952,-4.467 -2.649,-7.22 l 0.335,-0.708 c 1.308,-2.755 4.415,-3.882 7.279,-2.521"
   id="path1025"
   inkscape:connector-curvature="0"
   style="fill:#2b2976" />
					<path
   d="m 86.617,80.955 c 2.795,1.326 3.877,4.436 2.574,7.189 l -0.34,0.705 c -1.305,2.756 -4.402,3.877 -7.197,2.551 -2.869,-1.359 -3.959,-4.471 -2.65,-7.227 l 0.338,-0.705 c 1.304,-2.753 4.406,-3.876 7.275,-2.513"
   id="path1027"
   inkscape:connector-curvature="0"
   style="fill:#2b2976" />
				</g>
			</g>
		</g>
		<g
   id="g1041">
			<defs
   id="defs1036">
				<path
   id="SVGID_5_"
   d="m 148.699,99.088 c 0,28.783 -23.33,52.116 -52.113,52.116 -28.79,0 -52.121,-23.333 -52.121,-52.116 0,-28.785 23.331,-52.12 52.121,-52.12 28.783,0 52.113,23.335 52.113,52.12 z"
   inkscape:connector-curvature="0" />
			</defs>
			<clipPath
   id="SVGID_6_">
				<use
   xlink:href="#SVGID_5_"
   overflow="visible"
   id="use1038"
   style="overflow:visible"
   x="0"
   y="0"
   width="100%"
   height="100%" />
			</clipPath>
		</g>
	</g>
	<g
   id="g1107">
		<path
   d="m 184.301,85.049 c 6.154,0 9.975,-3.165 9.975,-8.043 v -0.133 c 0,-5.482 -3.891,-8.533 -9.975,-8.533 h -9.514 V 85.049 Z M 166.432,65.174 c 0,-2.34 2.064,-4.258 4.377,-4.258 h 14.15 c 10.852,0 17.674,6.329 17.674,15.754 v 0.135 c 0,10.494 -8.412,15.668 -18.598,15.668 h -9.248 v 11.604 c 0,2.275 -1.896,4.077 -4.145,4.077 -2.316,0 -4.211,-1.802 -4.211,-4.077 V 65.556"
   id="path1045"
   inkscape:connector-curvature="0"
   style="fill:#2b2976" />
		<path
   d="m 232.75,84.12 c 5.822,0 9.324,-2.969 9.324,-7.715 V 76.27 c 0,-5.014 -3.369,-7.93 -9.387,-7.93 H 220.724 V 84.12 Z M 212.371,65.174 c 0,-2.34 2.127,-4.258 4.443,-4.258 h 16.533 c 5.822,0 10.326,1.796 13.303,4.735 2.445,2.541 3.777,6.073 3.777,10.153 v 0.132 c 0,7.486 -4.242,12.032 -10.455,13.969 l 8.891,11.297 c 0.793,1.003 1.338,1.874 1.338,3.145 0,2.271 -1.91,3.808 -3.896,3.808 -1.854,0 -3.039,-0.851 -3.961,-2.12 L 231.1,91.544 h -10.375 v 12.532 c 0,2.275 -1.893,4.077 -4.143,4.077 -2.312,0 -4.211,-1.802 -4.211,-4.077 v -38.52"
   id="path1047"
   inkscape:connector-curvature="0"
   style="fill:#2b2976" />
		<path
   d="m 297.768,84.559 v -0.136 c 0,-9.086 -6.652,-16.642 -15.846,-16.642 -9.195,0 -15.711,7.418 -15.711,16.508 v 0.134 c 0,9.091 6.652,16.579 15.844,16.579 9.195,0 15.713,-7.351 15.713,-16.443 M 257.854,84.12 v 0.303 c 0,-13.167 9.979,-24.194 24.201,-24.194 14.221,0 24.064,10.895 24.064,24.061 v 0.134 c 0,13.169 -9.975,24.198 -24.197,24.198 -14.221,0 -24.068,-10.898 -24.068,-24.062"
   id="path1049"
   inkscape:connector-curvature="0"
   style="fill:#2b2976" />
		<path
   d="m 310.703,66.311 c -0.201,-0.467 -0.33,-1.068 -0.33,-1.605 0,-2.274 1.916,-4.009 4.164,-4.009 1.984,0 3.506,1.271 4.037,3.006 l 10.648,32.151 10.451,-31.839 c 0.66,-1.938 2.049,-3.099 4.102,-3.099 h 0.594 c 2.051,0 3.506,1.16 4.1,3.099 l 10.453,31.927 10.645,-32.26 c 0.598,-1.67 1.984,-2.965 3.971,-2.965 2.184,0 4.035,1.726 4.035,3.934 0,0.533 -0.199,1.199 -0.4,1.666 l -13.688,38.65 c -0.73,2.069 -2.252,3.286 -4.234,3.286 h -0.795 c -1.98,0 -3.438,-1.151 -4.166,-3.288 l -10.316,-30.489 -10.318,30.46 c -0.729,2.137 -2.248,3.317 -4.234,3.317 h -0.795 c -1.98,0 -3.439,-1.151 -4.229,-3.288 L 310.703,66.311"
   id="path1051"
   inkscape:connector-curvature="0"
   style="fill:#2b2976" />
		<path
   d="m 385.02,64.772 c 0,-2.272 1.893,-4.076 4.209,-4.076 2.248,0 4.143,1.804 4.143,4.076 V 99.9 h 21.027 c 2.049,0 3.699,2.104 3.699,4.176 0,2.072 -1.65,4.177 -3.699,4.177 h -25.002 c -2.314,0 -4.377,-2.236 -4.377,-4.577 V 64.629"
   id="path1053"
   inkscape:connector-curvature="0"
   style="fill:#2b2976" />
		<path
   d="M 425.859,103.612 V 65.174 c 0,-2.34 1.395,-4.258 3.703,-4.258 h 26.92 c 1.984,0 3.641,1.709 3.641,3.711 0,2.074 -1.656,3.713 -3.641,3.713 h -23.197 v 12.068 h 20.221 c 1.984,0 3.641,1.709 3.641,3.778 0,2.003 -1.656,3.646 -3.641,3.646 h -20.221 v 12.995 h 23.531 c 1.98,0 3.635,1.707 3.635,3.71 0,2.075 -1.654,3.715 -3.635,3.715 h -27.254 c -2.309,0 -3.703,-2.236 -3.703,-4.577"
   id="path1055"
   inkscape:connector-curvature="0"
   style="fill:#2b2976" />
		<path
   d="m 489.336,84.12 c 5.822,0 9.852,-2.969 9.852,-7.715 V 76.27 c 0,-5.014 -3.898,-7.93 -9.914,-7.93 H 477.838 V 84.12 Z M 469.482,65.174 c 0,-2.34 1.6,-4.258 3.914,-4.258 h 16.533 c 5.822,0 10.592,1.796 13.566,4.735 2.447,2.541 4.047,6.073 4.047,10.153 v 0.132 c 0,7.486 -4.51,12.032 -10.719,13.969 l 8.756,11.297 c 0.791,1.003 1.268,1.874 1.268,3.145 0,2.271 -1.945,3.808 -3.922,3.808 -1.855,0 -3.059,-0.851 -3.986,-2.12 L 487.687,91.546 h -9.85 v 12.532 c 0,2.275 -1.896,4.077 -4.143,4.077 -2.316,0 -4.213,-1.802 -4.213,-4.077 V 65.556"
   id="path1057"
   inkscape:connector-curvature="0"
   style="fill:#2b2976" />
		<path
   d="m 518.719,98.264 c 2.643,0 5.07,2.003 5.07,4.609 v 0.669 c 0,2.606 -2.428,4.612 -5.07,4.612 -2.711,0 -5.141,-2.006 -5.141,-4.612 v -0.669 c 0,-2.606 2.43,-4.609 5.141,-4.609"
   id="path1059"
   inkscape:connector-curvature="0"
   style="fill:#6658a4" />
		<path
   d="m 533.07,76.201 c 0,-2.271 1.434,-4.077 3.68,-4.077 2.25,0 3.746,1.806 3.746,4.077 v 27.94 c 0,2.275 -1.496,4.013 -3.746,4.013 -2.182,0 -3.68,-1.737 -3.68,-4.013 z m -0.927,-13.168 c 0,-2.402 2.061,-3.941 4.641,-3.941 2.582,0 4.641,1.539 4.641,3.941 v 0.402 c 0,2.408 -2.059,4.012 -4.641,4.012 -2.58,0 -4.641,-1.604 -4.641,-4.012 v -0.664"
   id="path1061"
   inkscape:connector-curvature="0"
   style="fill:#6658a4" />
		<path
   d="m 578.551,89.884 v -0.138 c 0,-6.39 -4.312,-11.68 -10.773,-11.68 -6.59,0 -10.574,5.221 -10.574,11.543 v 0.137 c 0,6.32 4.318,11.612 10.711,11.612 6.657,0 10.636,-5.223 10.636,-11.474 M 548.85,89.689 v 0.057 c 0,-10.372 8.051,-18.963 19.059,-18.963 11.014,0 18.998,8.452 18.998,18.826 v 0.137 c 0,10.309 -8.053,18.899 -19.133,18.899 -10.939,0 -18.924,-8.454 -18.924,-18.762"
   id="path1063"
   inkscape:connector-curvature="0"
   style="fill:#6658a4" />
		<g
   id="g1067">
			<path
   d="m 584.837,64.212 v -0.035 c 0,-3.3 2.675,-6.08 6.045,-6.08 3.405,0 6.046,2.745 6.046,6.046 v 0.034 c 0,3.301 -2.676,6.081 -6.046,6.081 -3.404,0 -6.045,-2.746 -6.045,-6.046 z m 11.395,-0.035 v -0.034 c 0,-2.953 -2.293,-5.386 -5.351,-5.386 -3.022,0 -5.351,2.467 -5.351,5.42 v 0.035 c 0,2.953 2.294,5.386 5.351,5.386 3.024,0 5.351,-2.467 5.351,-5.421 z m -7.851,-2.467 c 0,-0.452 0.348,-0.798 0.765,-0.798 h 2.188 c 1.494,0 2.536,0.694 2.536,2.084 0,0.938 -0.486,1.598 -1.251,1.91 l 0.938,1.146 c 0.174,0.174 0.208,0.348 0.208,0.557 0,0.416 -0.312,0.729 -0.764,0.729 -0.278,0 -0.452,-0.14 -0.626,-0.313 l -1.459,-1.807 h -1.008 v 1.355 c 0,0.417 -0.348,0.765 -0.764,0.765 -0.417,0 -0.765,-0.348 -0.765,-0.765 V 61.71 Z m 2.848,2.259 c 0.695,0 1.077,-0.348 1.077,-0.869 0,-0.555 -0.417,-0.868 -1.077,-0.868 h -1.32 v 1.737 z"
   id="path1065"
   inkscape:connector-curvature="0"
   style="fill:#6658a4" />
		</g>
		<g
   id="g1105">
			<path
   d="M 169.165,145.201 V 132.654 H 167.1 c -0.451,0 -0.865,-0.413 -0.865,-0.864 0,-0.45 0.414,-0.826 0.865,-0.826 h 2.065 v -5.335 c 0,-0.525 0.376,-0.939 0.901,-0.939 0.526,0 0.939,0.414 0.939,0.939 v 5.335 h 6.011 c 0.451,0 0.864,0.413 0.864,0.864 0,0.451 -0.413,0.826 -0.864,0.826 h -6.011 v 12.359 c 0,2.742 1.615,3.719 3.832,3.719 1.314,0 1.916,-0.375 2.179,-0.375 0.413,0 0.827,0.375 0.827,0.826 0,0.376 -0.227,0.639 -0.602,0.789 -0.752,0.264 -1.615,0.488 -2.705,0.488 -2.967,0.001 -5.371,-1.614 -5.371,-5.259 z"
   id="path1069"
   inkscape:connector-curvature="0"
   style="fill:#6658a4" />
			<path
   d="m 183.931,123.488 c 0,-0.526 0.376,-0.939 0.901,-0.939 0.526,0 0.939,0.413 0.939,0.939 v 11.045 c 1.277,-2.254 3.418,-4.02 6.912,-4.02 4.847,0 7.664,3.305 7.664,7.889 v 10.932 c 0,0.563 -0.376,0.939 -0.902,0.939 -0.525,0 -0.938,-0.376 -0.938,-0.939 V 138.74 c 0,-3.944 -2.216,-6.537 -6.086,-6.537 -3.757,0 -6.649,2.855 -6.649,6.838 v 10.293 c 0,0.563 -0.375,0.939 -0.901,0.939 -0.526,0 -0.939,-0.376 -0.939,-0.939 v -25.846 z"
   id="path1071"
   inkscape:connector-curvature="0"
   style="fill:#6658a4" />
			<path
   d="m 215.79,150.574 c -5.034,0 -9.392,-4.02 -9.392,-9.993 v -0.075 c 0,-5.561 3.906,-9.992 9.091,-9.992 5.372,0 8.791,4.432 8.791,9.917 0,0.45 -0.451,0.864 -0.901,0.864 h -15.027 c 0.338,4.771 3.757,7.551 7.514,7.551 2.742,0 4.658,-1.127 6.198,-2.63 0.15,-0.149 0.339,-0.263 0.601,-0.263 0.489,0 0.902,0.375 0.902,0.864 0,0.188 -0.075,0.413 -0.301,0.638 -1.879,1.879 -4.02,3.119 -7.476,3.119 z m 6.499,-10.932 c -0.264,-3.869 -2.479,-7.438 -6.875,-7.438 -3.794,0 -6.725,3.193 -7.062,7.438 z"
   id="path1073"
   inkscape:connector-curvature="0"
   style="fill:#6658a4" />
			<path
   d="m 260.235,149.334 c 0,0.563 -0.376,0.939 -0.902,0.939 -0.525,0 -0.938,-0.376 -0.938,-0.939 v -3.494 c -1.653,2.518 -4.096,4.734 -7.89,4.734 -4.621,0 -9.316,-3.72 -9.316,-9.955 v -0.076 c 0,-6.236 4.695,-10.029 9.316,-10.029 3.832,0 6.312,2.178 7.89,4.582 v -11.607 c 0,-0.564 0.375,-0.939 0.901,-0.939 0.525,0 0.939,0.375 0.939,0.939 z m -17.055,-8.865 v 0.074 c 0,5.035 3.493,8.266 7.513,8.266 3.982,0 7.814,-3.344 7.814,-8.228 v -0.075 c 0,-4.922 -3.832,-8.227 -7.814,-8.227 -4.171,0 -7.513,3.043 -7.513,8.19 z"
   id="path1075"
   inkscape:connector-curvature="0"
   style="fill:#6658a4" />
			<path
   d="m 276.054,150.574 c -5.034,0 -9.393,-4.02 -9.393,-9.993 v -0.075 c 0,-5.561 3.907,-9.992 9.092,-9.992 5.372,0 8.791,4.432 8.791,9.917 0,0.45 -0.451,0.864 -0.902,0.864 h -15.026 c 0.338,4.771 3.757,7.551 7.514,7.551 2.742,0 4.658,-1.127 6.198,-2.63 0.15,-0.149 0.338,-0.263 0.601,-0.263 0.488,0 0.902,0.375 0.902,0.864 0,0.188 -0.075,0.413 -0.301,0.638 -1.88,1.879 -4.02,3.119 -7.476,3.119 z m 6.499,-10.932 c -0.264,-3.869 -2.479,-7.438 -6.875,-7.438 -3.794,0 -6.725,3.193 -7.062,7.438 z"
   id="path1077"
   inkscape:connector-curvature="0"
   style="fill:#6658a4" />
			<path
   d="m 289.354,140.619 v -0.076 c 0,-5.371 4.282,-10.029 9.768,-10.029 3.306,0 5.484,1.427 7.213,3.043 0.149,0.149 0.263,0.412 0.263,0.676 0,0.525 -0.413,0.939 -0.939,0.939 -0.226,0 -0.488,-0.076 -0.639,-0.227 -1.54,-1.465 -3.344,-2.704 -5.936,-2.704 -4.357,0 -7.738,3.644 -7.738,8.228 v 0.074 c 0,4.621 3.493,8.303 7.889,8.303 2.479,0 4.471,-1.202 6.011,-2.742 0.15,-0.15 0.338,-0.301 0.601,-0.301 0.451,0 0.902,0.451 0.902,0.902 0,0.188 -0.075,0.412 -0.226,0.562 -1.916,1.954 -4.133,3.307 -7.4,3.307 -5.523,0 -9.769,-4.584 -9.769,-9.955 z"
   id="path1079"
   inkscape:connector-curvature="0"
   style="fill:#6658a4" />
			<path
   d="m 312.911,124.39 c 0,-0.639 0.488,-1.127 1.127,-1.127 0.639,0 1.165,0.488 1.165,1.127 v 0.639 c 0,0.639 -0.526,1.127 -1.165,1.127 -0.639,0 -1.127,-0.488 -1.127,-1.127 z m 0.226,7.363 c 0,-0.526 0.376,-0.939 0.901,-0.939 0.526,0 0.939,0.376 0.939,0.939 v 17.581 c 0,0.563 -0.376,0.939 -0.901,0.939 -0.526,0 -0.939,-0.376 -0.939,-0.939 z"
   id="path1081"
   inkscape:connector-curvature="0"
   style="fill:#6658a4" />
			<path
   d="m 321.74,148.02 c -0.15,-0.113 -0.338,-0.414 -0.338,-0.714 0,-0.488 0.413,-0.901 0.901,-0.901 0.226,0 0.451,0.074 0.602,0.188 1.991,1.428 4.095,2.179 6.386,2.179 2.593,0 4.621,-1.427 4.621,-3.644 v -0.076 c 0,-2.254 -2.404,-3.08 -5.071,-3.831 -3.118,-0.901 -6.574,-1.841 -6.574,-5.259 v -0.076 c 0,-3.08 2.592,-5.297 6.311,-5.297 2.066,0 4.358,0.676 6.199,1.729 0.226,0.15 0.488,0.413 0.488,0.826 0,0.488 -0.413,0.902 -0.901,0.902 -0.226,0 -0.414,-0.076 -0.526,-0.15 -1.653,-0.977 -3.494,-1.578 -5.335,-1.578 -2.629,0 -4.357,1.428 -4.357,3.344 v 0.074 c 0,2.143 2.592,2.931 5.335,3.72 3.08,0.864 6.311,1.991 6.311,5.372 v 0.075 c 0,3.419 -2.93,5.597 -6.611,5.597 -2.594,-0.002 -5.488,-1.016 -7.441,-2.48 z"
   id="path1083"
   inkscape:connector-curvature="0"
   style="fill:#6658a4" />
			<path
   d="m 342.441,124.39 c 0,-0.639 0.488,-1.127 1.127,-1.127 0.639,0 1.165,0.488 1.165,1.127 v 0.639 c 0,0.639 -0.526,1.127 -1.165,1.127 -0.639,0 -1.127,-0.488 -1.127,-1.127 z m 0.226,7.363 c 0,-0.526 0.376,-0.939 0.901,-0.939 0.526,0 0.939,0.376 0.939,0.939 v 17.581 c 0,0.563 -0.376,0.939 -0.901,0.939 -0.526,0 -0.939,-0.376 -0.939,-0.939 z"
   id="path1085"
   inkscape:connector-curvature="0"
   style="fill:#6658a4" />
			<path
   d="m 351.195,140.619 v -0.076 c 0,-5.371 4.17,-10.029 9.88,-10.029 5.673,0 9.806,4.582 9.806,9.955 v 0.074 c 0,5.373 -4.17,10.031 -9.88,10.031 -5.673,0 -9.806,-4.584 -9.806,-9.955 z m 17.695,0 v -0.076 c 0,-4.62 -3.456,-8.302 -7.889,-8.302 -4.546,0 -7.814,3.72 -7.814,8.228 v 0.074 c 0,4.621 3.456,8.303 7.889,8.303 4.545,0 7.814,-3.719 7.814,-8.227 z"
   id="path1087"
   inkscape:connector-curvature="0"
   style="fill:#6658a4" />
			<path
   d="m 377.308,131.753 c 0,-0.526 0.375,-0.939 0.901,-0.939 0.525,0 0.939,0.376 0.939,0.939 v 2.78 c 1.277,-2.254 3.418,-4.02 6.912,-4.02 4.846,0 7.663,3.305 7.663,7.889 v 10.932 c 0,0.563 -0.375,0.939 -0.901,0.939 -0.525,0 -0.939,-0.376 -0.939,-0.939 V 138.74 c 0,-3.944 -2.216,-6.537 -6.085,-6.537 -3.757,0 -6.649,2.855 -6.649,6.838 v 10.293 c 0,0.563 -0.376,0.939 -0.902,0.939 -0.525,0 -0.938,-0.376 -0.938,-0.939 v -17.581 z"
   id="path1089"
   inkscape:connector-curvature="0"
   style="fill:#6658a4" />
			<path
   d="m 411.797,140.619 v -0.076 c 0,-5.371 4.283,-10.029 9.768,-10.029 3.306,0 5.484,1.427 7.213,3.043 0.15,0.149 0.263,0.412 0.263,0.676 0,0.525 -0.413,0.939 -0.938,0.939 -0.226,0 -0.488,-0.076 -0.639,-0.227 -1.541,-1.465 -3.344,-2.704 -5.936,-2.704 -4.358,0 -7.739,3.644 -7.739,8.228 v 0.074 c 0,4.621 3.494,8.303 7.889,8.303 2.479,0 4.471,-1.202 6.011,-2.742 0.15,-0.15 0.339,-0.301 0.602,-0.301 0.451,0 0.901,0.451 0.901,0.902 0,0.188 -0.075,0.412 -0.226,0.562 -1.916,1.954 -4.132,3.307 -7.4,3.307 -5.524,0 -9.769,-4.584 -9.769,-9.955 z"
   id="path1091"
   inkscape:connector-curvature="0"
   style="fill:#6658a4" />
			<path
   d="m 433.438,140.619 v -0.076 c 0,-5.371 4.17,-10.029 9.88,-10.029 5.673,0 9.806,4.582 9.806,9.955 v 0.074 c 0,5.373 -4.17,10.031 -9.88,10.031 -5.674,0 -9.806,-4.584 -9.806,-9.955 z m 17.694,0 v -0.076 c 0,-4.62 -3.456,-8.302 -7.889,-8.302 -4.546,0 -7.814,3.72 -7.814,8.228 v 0.074 c 0,4.621 3.456,8.303 7.889,8.303 4.545,0 7.814,-3.719 7.814,-8.227 z"
   id="path1093"
   inkscape:connector-curvature="0"
   style="fill:#6658a4" />
			<path
   d="m 459.55,131.753 c 0,-0.526 0.375,-0.939 0.901,-0.939 0.525,0 0.939,0.376 0.939,0.939 v 2.63 c 1.239,-1.991 2.968,-3.869 6.386,-3.869 3.344,0 5.41,1.915 6.462,4.132 1.239,-2.142 3.306,-4.132 6.912,-4.132 4.546,0 7.363,3.192 7.363,8.001 v 10.819 c 0,0.563 -0.376,0.939 -0.901,0.939 -0.526,0 -0.939,-0.376 -0.939,-0.939 V 138.74 c 0,-4.133 -2.142,-6.537 -5.673,-6.537 -3.23,0 -6.048,2.48 -6.048,6.763 v 10.368 c 0,0.563 -0.376,0.939 -0.901,0.939 -0.526,0 -0.939,-0.376 -0.939,-0.939 v -10.707 c 0,-3.981 -2.179,-6.424 -5.598,-6.424 -3.419,0 -6.123,3.006 -6.123,6.875 v 10.256 c 0,0.563 -0.376,0.939 -0.902,0.939 -0.525,0 -0.938,-0.376 -0.938,-0.939 v -17.581 z"
   id="path1095"
   inkscape:connector-curvature="0"
   style="fill:#6658a4" />
			<path
   d="m 496.031,131.753 c 0,-0.563 0.375,-0.939 0.901,-0.939 0.525,0 0.939,0.376 0.939,0.939 v 3.493 c 1.652,-2.517 4.095,-4.732 7.889,-4.732 4.621,0 9.316,3.719 9.316,9.955 v 0.074 c 0,6.236 -4.695,10.031 -9.316,10.031 -3.832,0 -6.312,-2.18 -7.889,-4.584 v 9.354 c 0,0.563 -0.376,0.939 -0.902,0.939 -0.525,0 -0.938,-0.376 -0.938,-0.939 z m 17.055,8.866 v -0.076 c 0,-5.033 -3.493,-8.264 -7.513,-8.264 -3.982,0 -7.814,3.343 -7.814,8.227 v 0.075 c 0,4.921 3.832,8.228 7.814,8.228 4.17,0 7.513,-3.043 7.513,-8.19 z"
   id="path1097"
   inkscape:connector-curvature="0"
   style="fill:#6658a4" />
			<path
   d="m 520.001,144.562 v -0.074 c 0,-3.982 3.419,-6.236 8.377,-6.236 2.668,0 4.509,0.338 6.35,0.826 v -0.826 c 0,-3.869 -2.367,-5.86 -6.312,-5.86 -2.104,0 -3.869,0.526 -5.447,1.276 -0.15,0.076 -0.301,0.113 -0.413,0.113 -0.451,0 -0.864,-0.413 -0.864,-0.863 0,-0.451 0.338,-0.752 0.526,-0.827 1.953,-0.864 3.869,-1.428 6.311,-1.428 2.593,0 4.658,0.714 6.049,2.104 1.277,1.277 1.953,3.043 1.953,5.409 v 11.157 c 0,0.563 -0.376,0.939 -0.901,0.939 -0.526,0 -0.901,-0.376 -0.901,-0.939 v -2.404 c -1.315,1.841 -3.682,3.645 -7.326,3.645 -3.57,0 -7.402,-2.029 -7.402,-6.012 z m 14.764,-1.615 v -2.178 c -1.615,-0.414 -3.757,-0.865 -6.499,-0.865 -4.058,0 -6.312,1.804 -6.312,4.471 v 0.075 c 0,2.78 2.63,4.396 5.561,4.396 3.906,0 7.25,-2.405 7.25,-5.899 z"
   id="path1099"
   inkscape:connector-curvature="0"
   style="fill:#6658a4" />
			<path
   d="m 543.896,131.753 c 0,-0.526 0.375,-0.939 0.901,-0.939 0.525,0 0.939,0.376 0.939,0.939 v 2.78 c 1.277,-2.254 3.418,-4.02 6.912,-4.02 4.846,0 7.663,3.305 7.663,7.889 v 10.932 c 0,0.563 -0.375,0.939 -0.901,0.939 -0.525,0 -0.939,-0.376 -0.939,-0.939 V 138.74 c 0,-3.944 -2.216,-6.537 -6.085,-6.537 -3.757,0 -6.649,2.855 -6.649,6.838 v 10.293 c 0,0.563 -0.376,0.939 -0.902,0.939 -0.525,0 -0.938,-0.376 -0.938,-0.939 v -17.581 z"
   id="path1101"
   inkscape:connector-curvature="0"
   style="fill:#6658a4" />
			<path
   d="m 566.175,155.646 c -0.301,-0.112 -0.526,-0.376 -0.526,-0.789 0,-0.488 0.376,-0.864 0.864,-0.864 0.188,0 0.376,0.075 0.602,0.15 0.601,0.226 1.277,0.376 2.441,0.376 2.104,0 3.381,-1.39 4.621,-4.245 l 0.112,-0.264 -8.565,-17.693 c -0.075,-0.188 -0.15,-0.376 -0.15,-0.563 0,-0.526 0.414,-0.939 0.978,-0.939 0.564,0 0.788,0.339 0.977,0.751 l 7.663,16.529 6.688,-16.604 c 0.15,-0.376 0.413,-0.677 0.901,-0.677 0.526,0 0.939,0.413 0.939,0.939 0,0.188 -0.038,0.3 -0.113,0.488 l -7.776,18.558 c -1.69,4.02 -3.644,5.447 -6.386,5.447 -1.279,0 -2.256,-0.225 -3.27,-0.6 z"
   id="path1103"
   inkscape:connector-curvature="0"
   style="fill:#6658a4" />
		</g>
	</g>
</g>
</svg>